<svg xmlns="http://www.w3.org/2000/svg" viewBox="0 0 500 500" width="500" height="500">
  <defs>
    <linearGradient id="a1bg" x1="0%" y1="0%" x2="100%" y2="100%">
      <stop offset="0%" style="stop-color:#0a1628"/><stop offset="100%" style="stop-color:#1a3055"/>
    </linearGradient>
  </defs>
  <rect width="500" height="500" fill="url(#a1bg)" rx="8"/>
  <circle cx="250" cy="220" r="180" fill="#c8a45a" opacity="0.04"/>
  <!-- Security team formation -->
  <g transform="translate(250,150)" fill="#c8a45a" opacity="0.25">
    <!-- Center guard -->
    <circle cx="0" cy="-10" r="22"/>
    <path d="M-25 20 L-30 130 L-5 130 L0 80 L5 130 L30 130 L25 20Z"/>
    <!-- Left guard -->
    <circle cx="-90" cy="0" r="20"/>
    <path d="M-112 28 L-116 120 L-94 120 L-90 75 L-86 120 L-64 120 L-68 28Z"/>
    <!-- Right guard -->
    <circle cx="90" cy="0" r="20"/>
    <path d="M68 28 L64 120 L86 120 L90 75 L94 120 L116 120 L112 28Z"/>
  </g>
  <!-- Shield badge -->
  <g transform="translate(250,140)" stroke="#c8a45a" stroke-width="2" fill="none" opacity="0.15">
    <path d="M0-90 L70-58 L70 20 C70 60 35 90 0 110 C-35 90 -70 60 -70 20 L-70-58Z"/>
  </g>
  <text x="250" y="400" text-anchor="middle" font-family="Arial, Helvetica, sans-serif" font-size="22" font-weight="bold" fill="#c8a45a" letter-spacing="3">ĐỘI HÌNH BẢO VỆ</text>
  <text x="250" y="430" text-anchor="middle" font-family="Arial, Helvetica, sans-serif" font-size="13" fill="#c8a45a" opacity="0.4" letter-spacing="2">ALBUM HOẠT ĐỘNG</text>
</svg>