<svg xmlns="http://www.w3.org/2000/svg" viewBox="0 0 100 100" width="100" height="100">
  <defs>
    <linearGradient id="av3" x1="0%" y1="100%" x2="100%" y2="0%">
      <stop offset="0%" style="stop-color:#162a4a"/><stop offset="100%" style="stop-color:#0a1628"/>
    </linearGradient>
  </defs>
  <circle cx="50" cy="50" r="50" fill="url(#av3)"/>
  <circle cx="50" cy="50" r="48" fill="none" stroke="#c8a45a" stroke-width="1.5" opacity="0.3"/>
  <!-- Male face with glasses -->
  <circle cx="50" cy="38" r="16" fill="#c8a45a" opacity="0.25"/>
  <!-- Neat hair parted -->
  <path d="M34 34 Q34 20 50 17 Q66 20 66 34 L64 30 Q62 22 50 20 Q38 22 36 30Z" fill="#c8a45a" opacity="0.18"/>
  <!-- Glasses -->
  <g stroke="#c8a45a" stroke-width="1" fill="none" opacity="0.35">
    <circle cx="43" cy="37" r="6"/>
    <circle cx="57" cy="37" r="6"/>
    <line x1="49" y1="37" x2="51" y2="37"/>
    <line x1="37" y1="36" x2="34" y2="34"/>
    <line x1="63" y1="36" x2="66" y2="34"/>
  </g>
  <!-- Body/shoulders (suit) -->
  <path d="M25 80 C25 62 35 55 50 55 C65 55 75 62 75 80 L75 100 L25 100Z" fill="#c8a45a" opacity="0.2"/>
  <!-- Suit lapels -->
  <path d="M43 58 L47 70 L50 65 L53 70 L57 58" stroke="#c8a45a" stroke-width="1.2" fill="none" opacity="0.3"/>
  <!-- Tie -->
  <path d="M49 67 L50 82 L51 67Z" fill="#c8a45a" opacity="0.25"/>
</svg>