<svg xmlns="http://www.w3.org/2000/svg" viewBox="0 0 100 100" width="100" height="100">
  <defs>
    <linearGradient id="av2" x1="100%" y1="0%" x2="0%" y2="100%">
      <stop offset="0%" style="stop-color:#0a1628"/><stop offset="100%" style="stop-color:#1a3055"/>
    </linearGradient>
  </defs>
  <circle cx="50" cy="50" r="50" fill="url(#av2)"/>
  <circle cx="50" cy="50" r="48" fill="none" stroke="#c8a45a" stroke-width="1.5" opacity="0.3"/>
  <!-- Female face -->
  <circle cx="50" cy="38" r="16" fill="#c8a45a" opacity="0.25"/>
  <!-- Long hair -->
  <path d="M30 38 Q30 18 50 15 Q70 18 70 38 L70 50 Q68 55 65 52 L65 38" fill="#c8a45a" opacity="0.12"/>
  <path d="M30 38 L30 50 Q32 55 35 52 L35 38" fill="#c8a45a" opacity="0.12"/>
  <!-- Body/shoulders -->
  <path d="M28 78 C28 62 37 56 50 56 C63 56 72 62 72 78 L72 100 L28 100Z" fill="#c8a45a" opacity="0.2"/>
  <!-- V-neck collar -->
  <path d="M40 58 L50 72 L60 58" stroke="#c8a45a" stroke-width="1.5" fill="none" opacity="0.3"/>
  <!-- Necklace -->
  <circle cx="50" cy="62" r="2" fill="#c8a45a" opacity="0.3"/>
</svg>