<svg xmlns="http://www.w3.org/2000/svg" viewBox="0 0 1920 600" width="1920" height="600">
  <defs>
    <linearGradient id="bg3" x1="0%" y1="100%" x2="100%" y2="0%">
      <stop offset="0%" style="stop-color:#0a1628"/>
      <stop offset="40%" style="stop-color:#152848"/>
      <stop offset="100%" style="stop-color:#0a1628"/>
    </linearGradient>
    <linearGradient id="gold3" x1="0%" y1="0%" x2="100%" y2="100%">
      <stop offset="0%" style="stop-color:#e8c86a"/>
      <stop offset="100%" style="stop-color:#a8843a"/>
    </linearGradient>
    <radialGradient id="glow3" cx="70%" cy="40%" r="45%">
      <stop offset="0%" style="stop-color:#c8a45a;stop-opacity:0.12"/>
      <stop offset="100%" style="stop-color:#0a1628;stop-opacity:0"/>
    </radialGradient>
  </defs>
  <rect width="1920" height="600" fill="url(#bg3)"/>
  <ellipse cx="1300" cy="250" rx="550" ry="280" fill="url(#glow3)"/>
  <!-- Dot pattern -->
  <g opacity="0.06" fill="#c8a45a">
    <circle cx="100" cy="100" r="2"/><circle cx="200" cy="100" r="2"/><circle cx="300" cy="100" r="2"/><circle cx="400" cy="100" r="2"/><circle cx="500" cy="100" r="2"/>
    <circle cx="100" cy="200" r="2"/><circle cx="200" cy="200" r="2"/><circle cx="300" cy="200" r="2"/><circle cx="400" cy="200" r="2"/><circle cx="500" cy="200" r="2"/>
    <circle cx="100" cy="300" r="2"/><circle cx="200" cy="300" r="2"/><circle cx="300" cy="300" r="2"/><circle cx="400" cy="300" r="2"/><circle cx="500" cy="300" r="2"/>
    <circle cx="100" cy="400" r="2"/><circle cx="200" cy="400" r="2"/><circle cx="300" cy="400" r="2"/><circle cx="400" cy="400" r="2"/><circle cx="500" cy="400" r="2"/>
    <circle cx="100" cy="500" r="2"/><circle cx="200" cy="500" r="2"/><circle cx="300" cy="500" r="2"/><circle cx="400" cy="500" r="2"/><circle cx="500" cy="500" r="2"/>
    <circle cx="1420" cy="100" r="2"/><circle cx="1520" cy="100" r="2"/><circle cx="1620" cy="100" r="2"/><circle cx="1720" cy="100" r="2"/><circle cx="1820" cy="100" r="2"/>
    <circle cx="1420" cy="200" r="2"/><circle cx="1520" cy="200" r="2"/><circle cx="1620" cy="200" r="2"/><circle cx="1720" cy="200" r="2"/><circle cx="1820" cy="200" r="2"/>
    <circle cx="1420" cy="300" r="2"/><circle cx="1520" cy="300" r="2"/><circle cx="1620" cy="300" r="2"/><circle cx="1720" cy="300" r="2"/><circle cx="1820" cy="300" r="2"/>
    <circle cx="1420" cy="400" r="2"/><circle cx="1520" cy="400" r="2"/><circle cx="1620" cy="400" r="2"/><circle cx="1720" cy="400" r="2"/><circle cx="1820" cy="400" r="2"/>
    <circle cx="1420" cy="500" r="2"/><circle cx="1520" cy="500" r="2"/><circle cx="1620" cy="500" r="2"/><circle cx="1720" cy="500" r="2"/><circle cx="1820" cy="500" r="2"/>
  </g>
  <!-- Event crowd silhouettes -->
  <g transform="translate(200,280)" fill="#c8a45a" opacity="0.15">
    <circle cx="0" cy="0" r="12"/><path d="M-12 15 L-15 65 L15 65 L12 15Z"/>
    <circle cx="40" cy="-5" r="13"/><path d="M27 12 L24 68 L56 68 L53 12Z"/>
    <circle cx="80" cy="3" r="11"/><path d="M68 18 L66 62 L94 62 L92 18Z"/>
    <circle cx="120" cy="-8" r="14"/><path d="M105 10 L102 70 L138 70 L135 10Z"/>
    <circle cx="165" cy="0" r="12"/><path d="M153 15 L150 65 L180 65 L177 15Z"/>
    <circle cx="205" cy="-3" r="13"/><path d="M192 13 L189 68 L221 68 L218 13Z"/>
    <circle cx="248" cy="5" r="11"/><path d="M236 20 L234 60 L262 60 L260 20Z"/>
    <circle cx="285" cy="-6" r="12"/><path d="M273 10 L270 65 L300 65 L297 10Z"/>
  </g>
  <!-- Stage/barrier -->
  <g transform="translate(200,370)" stroke="#c8a45a" stroke-width="2" fill="none" opacity="0.2">
    <line x1="0" y1="0" x2="340" y2="0"/>
    <line x1="0" y1="0" x2="0" y2="40"/>
    <line x1="85" y1="0" x2="85" y2="40"/>
    <line x1="170" y1="0" x2="170" y2="40"/>
    <line x1="255" y1="0" x2="255" y2="40"/>
    <line x1="340" y1="0" x2="340" y2="40"/>
  </g>
  <!-- Spotlight beams -->
  <g opacity="0.06" fill="#c8a45a">
    <polygon points="960,0 880,300 1040,300"/>
    <polygon points="1200,0 1140,250 1260,250"/>
    <polygon points="720,0 670,280 770,280"/>
  </g>
  <!-- Main icon: calendar with shield -->
  <g transform="translate(960,200)">
    <!-- Calendar -->
    <rect x="-55" y="-40" width="110" height="100" rx="8" stroke="#c8a45a" stroke-width="2.5" fill="none"/>
    <line x1="-55" y1="-15" x2="55" y2="-15" stroke="#c8a45a" stroke-width="2"/>
    <line x1="-25" y1="-55" x2="-25" y2="-30" stroke="#c8a45a" stroke-width="3" stroke-linecap="round"/>
    <line x1="25" y1="-55" x2="25" y2="-30" stroke="#c8a45a" stroke-width="3" stroke-linecap="round"/>
    <!-- Mini shield inside calendar -->
    <g transform="translate(0,18)" fill="#c8a45a" opacity="0.5">
      <path d="M0-22 L20-14 L20 5 C20 18 10 28 0 34 C-10 28 -20 18 -20 5 L-20-14 Z" stroke="#c8a45a" stroke-width="1.5" fill="none"/>
      <path d="M-8 5 L-2 12 L12-4" stroke="#c8a45a" stroke-width="2.5" fill="none" stroke-linecap="round" stroke-linejoin="round"/>
    </g>
  </g>
  <!-- Text -->
  <text x="960" y="380" text-anchor="middle" font-family="Arial, Helvetica, sans-serif" font-size="52" font-weight="bold" fill="#c8a45a" letter-spacing="8">BẢO VỆ SỰ KIỆN</text>
  <text x="960" y="425" text-anchor="middle" font-family="Arial, Helvetica, sans-serif" font-size="20" fill="#c8a45a" opacity="0.6" letter-spacing="4">AN NINH TRẬT TỰ CHO MỌI SỰ KIỆN</text>
  <line x1="660" y1="395" x2="820" y2="395" stroke="#c8a45a" stroke-width="1" opacity="0.4"/>
  <line x1="1100" y1="395" x2="1260" y2="395" stroke="#c8a45a" stroke-width="1" opacity="0.4"/>
</svg>